<mxfile host="app.diagrams.net" modified="2021-12-27T09:43:00.448Z" agent="5.0 (Windows NT 10.0; Win64; x64) AppleWebKit/537.36 (KHTML, like Gecko) Chrome/96.0.4664.110 Safari/537.36 Edg/96.0.1054.62" etag="9ygPzSCEVxwO8jTg-TjY" version="16.1.0" type="github">
  <diagram id="nTqDe3H2af05VVfrOH6g" name="Page-1">
    <mxGraphModel dx="1550" dy="863" grid="1" gridSize="10" guides="1" tooltips="1" connect="1" arrows="1" fold="1" page="1" pageScale="1" pageWidth="1169" pageHeight="827" math="0" shadow="0">
      <root>
        <mxCell id="0" />
        <mxCell id="1" parent="0" />
        <mxCell id="mSuhMjsWNYNs9g7WFmaW-88" style="edgeStyle=none;shape=connector;rounded=0;orthogonalLoop=1;jettySize=auto;html=1;exitX=0.5;exitY=1;exitDx=0;exitDy=0;entryX=0.5;entryY=0;entryDx=0;entryDy=0;labelBackgroundColor=default;fontFamily=Helvetica;fontSize=11;fontColor=default;endArrow=none;endFill=0;strokeColor=default;" edge="1" parent="1" source="mSuhMjsWNYNs9g7WFmaW-1" target="mSuhMjsWNYNs9g7WFmaW-87">
          <mxGeometry relative="1" as="geometry" />
        </mxCell>
        <mxCell id="mSuhMjsWNYNs9g7WFmaW-1" value="图书" style="rounded=0;whiteSpace=wrap;html=1;" vertex="1" parent="1">
          <mxGeometry x="160" y="160" width="100" height="50" as="geometry" />
        </mxCell>
        <mxCell id="mSuhMjsWNYNs9g7WFmaW-2" value="店家" style="rounded=0;whiteSpace=wrap;html=1;" vertex="1" parent="1">
          <mxGeometry x="160" y="630" width="100" height="50" as="geometry" />
        </mxCell>
        <mxCell id="mSuhMjsWNYNs9g7WFmaW-52" style="edgeStyle=none;shape=connector;rounded=0;orthogonalLoop=1;jettySize=auto;html=1;exitX=1;exitY=0.5;exitDx=0;exitDy=0;entryX=0.5;entryY=1;entryDx=0;entryDy=0;labelBackgroundColor=default;fontFamily=Helvetica;fontSize=11;fontColor=default;endArrow=none;endFill=0;strokeColor=default;" edge="1" parent="1" source="mSuhMjsWNYNs9g7WFmaW-3" target="mSuhMjsWNYNs9g7WFmaW-51">
          <mxGeometry relative="1" as="geometry" />
        </mxCell>
        <mxCell id="mSuhMjsWNYNs9g7WFmaW-104" style="edgeStyle=none;shape=connector;rounded=0;orthogonalLoop=1;jettySize=auto;html=1;exitX=0.5;exitY=1;exitDx=0;exitDy=0;entryX=0.5;entryY=0;entryDx=0;entryDy=0;labelBackgroundColor=default;fontFamily=Helvetica;fontSize=11;fontColor=default;endArrow=none;endFill=0;strokeColor=default;" edge="1" parent="1" source="mSuhMjsWNYNs9g7WFmaW-3" target="mSuhMjsWNYNs9g7WFmaW-90">
          <mxGeometry relative="1" as="geometry" />
        </mxCell>
        <mxCell id="mSuhMjsWNYNs9g7WFmaW-3" value="购物车" style="rounded=0;whiteSpace=wrap;html=1;" vertex="1" parent="1">
          <mxGeometry x="550" y="250" width="100" height="50" as="geometry" />
        </mxCell>
        <mxCell id="mSuhMjsWNYNs9g7WFmaW-49" style="rounded=0;orthogonalLoop=1;jettySize=auto;html=1;exitX=0;exitY=0.5;exitDx=0;exitDy=0;strokeColor=default;endArrow=none;endFill=0;" edge="1" parent="1" source="mSuhMjsWNYNs9g7WFmaW-4">
          <mxGeometry relative="1" as="geometry">
            <mxPoint x="785" y="220" as="targetPoint" />
          </mxGeometry>
        </mxCell>
        <mxCell id="mSuhMjsWNYNs9g7WFmaW-54" style="edgeStyle=none;shape=connector;rounded=0;orthogonalLoop=1;jettySize=auto;html=1;exitX=0.5;exitY=0;exitDx=0;exitDy=0;entryX=0.5;entryY=1;entryDx=0;entryDy=0;labelBackgroundColor=default;fontFamily=Helvetica;fontSize=11;fontColor=default;endArrow=none;endFill=0;strokeColor=default;" edge="1" parent="1" source="mSuhMjsWNYNs9g7WFmaW-4" target="mSuhMjsWNYNs9g7WFmaW-11">
          <mxGeometry relative="1" as="geometry" />
        </mxCell>
        <mxCell id="mSuhMjsWNYNs9g7WFmaW-55" style="edgeStyle=none;shape=connector;rounded=0;orthogonalLoop=1;jettySize=auto;html=1;exitX=0.5;exitY=0;exitDx=0;exitDy=0;entryX=0.5;entryY=1;entryDx=0;entryDy=0;labelBackgroundColor=default;fontFamily=Helvetica;fontSize=11;fontColor=default;endArrow=none;endFill=0;strokeColor=default;" edge="1" parent="1" source="mSuhMjsWNYNs9g7WFmaW-4" target="mSuhMjsWNYNs9g7WFmaW-12">
          <mxGeometry relative="1" as="geometry" />
        </mxCell>
        <mxCell id="mSuhMjsWNYNs9g7WFmaW-99" style="edgeStyle=none;shape=connector;rounded=0;orthogonalLoop=1;jettySize=auto;html=1;exitX=0.5;exitY=1;exitDx=0;exitDy=0;entryX=0.5;entryY=0;entryDx=0;entryDy=0;labelBackgroundColor=default;fontFamily=Helvetica;fontSize=11;fontColor=default;endArrow=none;endFill=0;strokeColor=default;" edge="1" parent="1" source="mSuhMjsWNYNs9g7WFmaW-4" target="mSuhMjsWNYNs9g7WFmaW-98">
          <mxGeometry relative="1" as="geometry" />
        </mxCell>
        <mxCell id="mSuhMjsWNYNs9g7WFmaW-4" value="会员" style="rounded=0;whiteSpace=wrap;html=1;" vertex="1" parent="1">
          <mxGeometry x="900" y="160" width="100" height="50" as="geometry" />
        </mxCell>
        <mxCell id="mSuhMjsWNYNs9g7WFmaW-100" style="edgeStyle=none;shape=connector;rounded=0;orthogonalLoop=1;jettySize=auto;html=1;exitX=1;exitY=0.5;exitDx=0;exitDy=0;entryX=0.5;entryY=1;entryDx=0;entryDy=0;labelBackgroundColor=default;fontFamily=Helvetica;fontSize=11;fontColor=default;endArrow=none;endFill=0;strokeColor=default;" edge="1" parent="1" source="mSuhMjsWNYNs9g7WFmaW-5" target="mSuhMjsWNYNs9g7WFmaW-98">
          <mxGeometry relative="1" as="geometry" />
        </mxCell>
        <mxCell id="mSuhMjsWNYNs9g7WFmaW-5" value="升级规则" style="rounded=0;whiteSpace=wrap;html=1;" vertex="1" parent="1">
          <mxGeometry x="740" y="440" width="100" height="50" as="geometry" />
        </mxCell>
        <mxCell id="mSuhMjsWNYNs9g7WFmaW-96" style="edgeStyle=none;shape=connector;rounded=0;orthogonalLoop=1;jettySize=auto;html=1;exitX=0.5;exitY=1;exitDx=0;exitDy=0;entryX=0.5;entryY=0;entryDx=0;entryDy=0;labelBackgroundColor=default;fontFamily=Helvetica;fontSize=11;fontColor=default;endArrow=none;endFill=0;strokeColor=default;" edge="1" parent="1" source="mSuhMjsWNYNs9g7WFmaW-6" target="mSuhMjsWNYNs9g7WFmaW-90">
          <mxGeometry relative="1" as="geometry" />
        </mxCell>
        <mxCell id="mSuhMjsWNYNs9g7WFmaW-6" value="折扣规则" style="rounded=0;whiteSpace=wrap;html=1;" vertex="1" parent="1">
          <mxGeometry x="360" y="436" width="100" height="50" as="geometry" />
        </mxCell>
        <mxCell id="mSuhMjsWNYNs9g7WFmaW-7" value="图书订单" style="rounded=0;whiteSpace=wrap;html=1;" vertex="1" parent="1">
          <mxGeometry x="549" y="630" width="100" height="50" as="geometry" />
        </mxCell>
        <mxCell id="mSuhMjsWNYNs9g7WFmaW-8" value="订单明细" style="rounded=0;whiteSpace=wrap;html=1;" vertex="1" parent="1">
          <mxGeometry x="900" y="630" width="100" height="50" as="geometry" />
        </mxCell>
        <mxCell id="mSuhMjsWNYNs9g7WFmaW-11" value="会员等级" style="ellipse;whiteSpace=wrap;html=1;" vertex="1" parent="1">
          <mxGeometry x="740" y="50" width="90" height="60" as="geometry" />
        </mxCell>
        <mxCell id="mSuhMjsWNYNs9g7WFmaW-12" value="会员积分" style="ellipse;whiteSpace=wrap;html=1;" vertex="1" parent="1">
          <mxGeometry x="850" y="10" width="90" height="60" as="geometry" />
        </mxCell>
        <mxCell id="mSuhMjsWNYNs9g7WFmaW-56" style="edgeStyle=none;shape=connector;rounded=0;orthogonalLoop=1;jettySize=auto;html=1;exitX=0.5;exitY=1;exitDx=0;exitDy=0;entryX=0.5;entryY=0;entryDx=0;entryDy=0;labelBackgroundColor=default;fontFamily=Helvetica;fontSize=11;fontColor=default;endArrow=none;endFill=0;strokeColor=default;" edge="1" parent="1" source="mSuhMjsWNYNs9g7WFmaW-13" target="mSuhMjsWNYNs9g7WFmaW-4">
          <mxGeometry relative="1" as="geometry" />
        </mxCell>
        <mxCell id="mSuhMjsWNYNs9g7WFmaW-13" value="身份证" style="ellipse;whiteSpace=wrap;html=1;" vertex="1" parent="1">
          <mxGeometry x="970" y="10" width="90" height="60" as="geometry" />
        </mxCell>
        <mxCell id="mSuhMjsWNYNs9g7WFmaW-57" style="edgeStyle=none;shape=connector;rounded=0;orthogonalLoop=1;jettySize=auto;html=1;exitX=0.5;exitY=1;exitDx=0;exitDy=0;labelBackgroundColor=default;fontFamily=Helvetica;fontSize=11;fontColor=default;endArrow=none;endFill=0;strokeColor=default;" edge="1" parent="1" source="mSuhMjsWNYNs9g7WFmaW-14">
          <mxGeometry relative="1" as="geometry">
            <mxPoint x="950" y="160" as="targetPoint" />
          </mxGeometry>
        </mxCell>
        <mxCell id="mSuhMjsWNYNs9g7WFmaW-14" value="电话号码" style="ellipse;whiteSpace=wrap;html=1;" vertex="1" parent="1">
          <mxGeometry x="1070" y="50" width="90" height="60" as="geometry" />
        </mxCell>
        <mxCell id="mSuhMjsWNYNs9g7WFmaW-85" style="edgeStyle=none;shape=connector;rounded=0;orthogonalLoop=1;jettySize=auto;html=1;exitX=0.5;exitY=1;exitDx=0;exitDy=0;entryX=0.5;entryY=0;entryDx=0;entryDy=0;labelBackgroundColor=default;fontFamily=Helvetica;fontSize=11;fontColor=default;endArrow=none;endFill=0;strokeColor=default;" edge="1" parent="1" source="mSuhMjsWNYNs9g7WFmaW-15" target="mSuhMjsWNYNs9g7WFmaW-3">
          <mxGeometry relative="1" as="geometry" />
        </mxCell>
        <mxCell id="mSuhMjsWNYNs9g7WFmaW-15" value="书名" style="ellipse;whiteSpace=wrap;html=1;" vertex="1" parent="1">
          <mxGeometry x="460" y="190" width="70" height="40" as="geometry" />
        </mxCell>
        <mxCell id="mSuhMjsWNYNs9g7WFmaW-82" style="edgeStyle=none;shape=connector;rounded=0;orthogonalLoop=1;jettySize=auto;html=1;exitX=0.5;exitY=1;exitDx=0;exitDy=0;entryX=0.5;entryY=0;entryDx=0;entryDy=0;labelBackgroundColor=default;fontFamily=Helvetica;fontSize=11;fontColor=default;endArrow=none;endFill=0;strokeColor=default;" edge="1" parent="1" source="mSuhMjsWNYNs9g7WFmaW-16" target="mSuhMjsWNYNs9g7WFmaW-3">
          <mxGeometry relative="1" as="geometry" />
        </mxCell>
        <mxCell id="mSuhMjsWNYNs9g7WFmaW-16" value="ISBN" style="ellipse;whiteSpace=wrap;html=1;" vertex="1" parent="1">
          <mxGeometry x="525" y="140" width="70" height="40" as="geometry" />
        </mxCell>
        <mxCell id="mSuhMjsWNYNs9g7WFmaW-83" style="edgeStyle=none;shape=connector;rounded=0;orthogonalLoop=1;jettySize=auto;html=1;exitX=0.5;exitY=1;exitDx=0;exitDy=0;labelBackgroundColor=default;fontFamily=Helvetica;fontSize=11;fontColor=default;endArrow=none;endFill=0;strokeColor=default;" edge="1" parent="1" source="mSuhMjsWNYNs9g7WFmaW-17">
          <mxGeometry relative="1" as="geometry">
            <mxPoint x="600" y="250" as="targetPoint" />
          </mxGeometry>
        </mxCell>
        <mxCell id="mSuhMjsWNYNs9g7WFmaW-17" value="类型" style="ellipse;whiteSpace=wrap;html=1;" vertex="1" parent="1">
          <mxGeometry x="610" y="140" width="70" height="40" as="geometry" />
        </mxCell>
        <mxCell id="mSuhMjsWNYNs9g7WFmaW-84" style="edgeStyle=none;shape=connector;rounded=0;orthogonalLoop=1;jettySize=auto;html=1;exitX=0.5;exitY=1;exitDx=0;exitDy=0;labelBackgroundColor=default;fontFamily=Helvetica;fontSize=11;fontColor=default;endArrow=none;endFill=0;strokeColor=default;" edge="1" parent="1" source="mSuhMjsWNYNs9g7WFmaW-18">
          <mxGeometry relative="1" as="geometry">
            <mxPoint x="600" y="250" as="targetPoint" />
          </mxGeometry>
        </mxCell>
        <mxCell id="mSuhMjsWNYNs9g7WFmaW-18" value="单价" style="ellipse;whiteSpace=wrap;html=1;" vertex="1" parent="1">
          <mxGeometry x="670" y="190" width="70" height="40" as="geometry" />
        </mxCell>
        <mxCell id="mSuhMjsWNYNs9g7WFmaW-80" style="edgeStyle=none;shape=connector;rounded=0;orthogonalLoop=1;jettySize=auto;html=1;exitX=0.5;exitY=0;exitDx=0;exitDy=0;entryX=0.5;entryY=1;entryDx=0;entryDy=0;labelBackgroundColor=default;fontFamily=Helvetica;fontSize=11;fontColor=default;endArrow=none;endFill=0;strokeColor=default;" edge="1" parent="1" source="mSuhMjsWNYNs9g7WFmaW-19" target="mSuhMjsWNYNs9g7WFmaW-3">
          <mxGeometry relative="1" as="geometry" />
        </mxCell>
        <mxCell id="mSuhMjsWNYNs9g7WFmaW-19" value="数量" style="ellipse;whiteSpace=wrap;html=1;" vertex="1" parent="1">
          <mxGeometry x="480" y="330" width="70" height="40" as="geometry" />
        </mxCell>
        <mxCell id="mSuhMjsWNYNs9g7WFmaW-81" style="edgeStyle=none;shape=connector;rounded=0;orthogonalLoop=1;jettySize=auto;html=1;exitX=0.5;exitY=0;exitDx=0;exitDy=0;labelBackgroundColor=default;fontFamily=Helvetica;fontSize=11;fontColor=default;endArrow=none;endFill=0;strokeColor=default;" edge="1" parent="1" source="mSuhMjsWNYNs9g7WFmaW-20">
          <mxGeometry relative="1" as="geometry">
            <mxPoint x="600" y="300" as="targetPoint" />
          </mxGeometry>
        </mxCell>
        <mxCell id="mSuhMjsWNYNs9g7WFmaW-20" value="店家号" style="ellipse;whiteSpace=wrap;html=1;" vertex="1" parent="1">
          <mxGeometry x="650" y="330" width="70" height="40" as="geometry" />
        </mxCell>
        <mxCell id="mSuhMjsWNYNs9g7WFmaW-61" style="edgeStyle=none;shape=connector;rounded=0;orthogonalLoop=1;jettySize=auto;html=1;exitX=0.5;exitY=1;exitDx=0;exitDy=0;labelBackgroundColor=default;fontFamily=Helvetica;fontSize=11;fontColor=default;endArrow=none;endFill=0;strokeColor=default;" edge="1" parent="1" source="mSuhMjsWNYNs9g7WFmaW-25">
          <mxGeometry relative="1" as="geometry">
            <mxPoint x="210" y="160" as="targetPoint" />
          </mxGeometry>
        </mxCell>
        <mxCell id="mSuhMjsWNYNs9g7WFmaW-25" value="书名" style="ellipse;whiteSpace=wrap;html=1;" vertex="1" parent="1">
          <mxGeometry x="70" y="100" width="70" height="40" as="geometry" />
        </mxCell>
        <mxCell id="mSuhMjsWNYNs9g7WFmaW-58" style="edgeStyle=none;shape=connector;rounded=0;orthogonalLoop=1;jettySize=auto;html=1;exitX=0.5;exitY=1;exitDx=0;exitDy=0;entryX=0.5;entryY=0;entryDx=0;entryDy=0;labelBackgroundColor=default;fontFamily=Helvetica;fontSize=11;fontColor=default;endArrow=none;endFill=0;strokeColor=default;" edge="1" parent="1" source="mSuhMjsWNYNs9g7WFmaW-26" target="mSuhMjsWNYNs9g7WFmaW-1">
          <mxGeometry relative="1" as="geometry" />
        </mxCell>
        <mxCell id="mSuhMjsWNYNs9g7WFmaW-26" value="ISBN" style="ellipse;whiteSpace=wrap;html=1;" vertex="1" parent="1">
          <mxGeometry x="135" y="50" width="70" height="40" as="geometry" />
        </mxCell>
        <mxCell id="mSuhMjsWNYNs9g7WFmaW-59" style="edgeStyle=none;shape=connector;rounded=0;orthogonalLoop=1;jettySize=auto;html=1;exitX=0.5;exitY=1;exitDx=0;exitDy=0;labelBackgroundColor=default;fontFamily=Helvetica;fontSize=11;fontColor=default;endArrow=none;endFill=0;strokeColor=default;" edge="1" parent="1" source="mSuhMjsWNYNs9g7WFmaW-27">
          <mxGeometry relative="1" as="geometry">
            <mxPoint x="210" y="160" as="targetPoint" />
          </mxGeometry>
        </mxCell>
        <mxCell id="mSuhMjsWNYNs9g7WFmaW-27" value="类型" style="ellipse;whiteSpace=wrap;html=1;" vertex="1" parent="1">
          <mxGeometry x="220" y="50" width="70" height="40" as="geometry" />
        </mxCell>
        <mxCell id="mSuhMjsWNYNs9g7WFmaW-60" style="edgeStyle=none;shape=connector;rounded=0;orthogonalLoop=1;jettySize=auto;html=1;exitX=0.5;exitY=1;exitDx=0;exitDy=0;labelBackgroundColor=default;fontFamily=Helvetica;fontSize=11;fontColor=default;endArrow=none;endFill=0;strokeColor=default;" edge="1" parent="1" source="mSuhMjsWNYNs9g7WFmaW-28">
          <mxGeometry relative="1" as="geometry">
            <mxPoint x="210" y="160" as="targetPoint" />
          </mxGeometry>
        </mxCell>
        <mxCell id="mSuhMjsWNYNs9g7WFmaW-28" value="单价" style="ellipse;whiteSpace=wrap;html=1;" vertex="1" parent="1">
          <mxGeometry x="280" y="100" width="70" height="40" as="geometry" />
        </mxCell>
        <mxCell id="mSuhMjsWNYNs9g7WFmaW-62" style="edgeStyle=none;shape=connector;rounded=0;orthogonalLoop=1;jettySize=auto;html=1;exitX=0.5;exitY=0;exitDx=0;exitDy=0;entryX=0.5;entryY=1;entryDx=0;entryDy=0;labelBackgroundColor=default;fontFamily=Helvetica;fontSize=11;fontColor=default;endArrow=none;endFill=0;strokeColor=default;" edge="1" parent="1" source="mSuhMjsWNYNs9g7WFmaW-29" target="mSuhMjsWNYNs9g7WFmaW-2">
          <mxGeometry relative="1" as="geometry" />
        </mxCell>
        <mxCell id="mSuhMjsWNYNs9g7WFmaW-29" value="店家名" style="ellipse;whiteSpace=wrap;html=1;" vertex="1" parent="1">
          <mxGeometry x="80" y="710" width="90" height="60" as="geometry" />
        </mxCell>
        <mxCell id="mSuhMjsWNYNs9g7WFmaW-63" style="edgeStyle=none;shape=connector;rounded=0;orthogonalLoop=1;jettySize=auto;html=1;exitX=0.5;exitY=0;exitDx=0;exitDy=0;labelBackgroundColor=default;fontFamily=Helvetica;fontSize=11;fontColor=default;endArrow=none;endFill=0;strokeColor=default;" edge="1" parent="1" source="mSuhMjsWNYNs9g7WFmaW-30">
          <mxGeometry relative="1" as="geometry">
            <mxPoint x="210" y="680" as="targetPoint" />
          </mxGeometry>
        </mxCell>
        <mxCell id="mSuhMjsWNYNs9g7WFmaW-30" value="店家号" style="ellipse;whiteSpace=wrap;html=1;" vertex="1" parent="1">
          <mxGeometry x="240" y="710" width="90" height="60" as="geometry" />
        </mxCell>
        <mxCell id="mSuhMjsWNYNs9g7WFmaW-66" style="edgeStyle=none;shape=connector;rounded=0;orthogonalLoop=1;jettySize=auto;html=1;exitX=0.5;exitY=1;exitDx=0;exitDy=0;entryX=0.5;entryY=0;entryDx=0;entryDy=0;labelBackgroundColor=default;fontFamily=Helvetica;fontSize=11;fontColor=default;endArrow=none;endFill=0;strokeColor=default;" edge="1" parent="1" source="mSuhMjsWNYNs9g7WFmaW-31" target="mSuhMjsWNYNs9g7WFmaW-7">
          <mxGeometry relative="1" as="geometry" />
        </mxCell>
        <mxCell id="mSuhMjsWNYNs9g7WFmaW-31" value="会员等级" style="ellipse;whiteSpace=wrap;html=1;" vertex="1" parent="1">
          <mxGeometry x="480" y="540" width="90" height="60" as="geometry" />
        </mxCell>
        <mxCell id="mSuhMjsWNYNs9g7WFmaW-68" style="edgeStyle=none;shape=connector;rounded=0;orthogonalLoop=1;jettySize=auto;html=1;exitX=0.5;exitY=1;exitDx=0;exitDy=0;labelBackgroundColor=default;fontFamily=Helvetica;fontSize=11;fontColor=default;endArrow=none;endFill=0;strokeColor=default;" edge="1" parent="1" source="mSuhMjsWNYNs9g7WFmaW-32">
          <mxGeometry relative="1" as="geometry">
            <mxPoint x="600" y="630" as="targetPoint" />
          </mxGeometry>
        </mxCell>
        <mxCell id="mSuhMjsWNYNs9g7WFmaW-32" value="会员积分" style="ellipse;whiteSpace=wrap;html=1;" vertex="1" parent="1">
          <mxGeometry x="630" y="540" width="90" height="60" as="geometry" />
        </mxCell>
        <mxCell id="mSuhMjsWNYNs9g7WFmaW-64" style="edgeStyle=none;shape=connector;rounded=0;orthogonalLoop=1;jettySize=auto;html=1;exitX=0.5;exitY=0;exitDx=0;exitDy=0;entryX=0.5;entryY=1;entryDx=0;entryDy=0;labelBackgroundColor=default;fontFamily=Helvetica;fontSize=11;fontColor=default;endArrow=none;endFill=0;strokeColor=default;" edge="1" parent="1" source="mSuhMjsWNYNs9g7WFmaW-33" target="mSuhMjsWNYNs9g7WFmaW-7">
          <mxGeometry relative="1" as="geometry" />
        </mxCell>
        <mxCell id="mSuhMjsWNYNs9g7WFmaW-33" value="店家名" style="ellipse;whiteSpace=wrap;html=1;" vertex="1" parent="1">
          <mxGeometry x="475" y="710" width="90" height="60" as="geometry" />
        </mxCell>
        <mxCell id="mSuhMjsWNYNs9g7WFmaW-65" style="edgeStyle=none;shape=connector;rounded=0;orthogonalLoop=1;jettySize=auto;html=1;exitX=0.5;exitY=0;exitDx=0;exitDy=0;labelBackgroundColor=default;fontFamily=Helvetica;fontSize=11;fontColor=default;endArrow=none;endFill=0;strokeColor=default;" edge="1" parent="1" source="mSuhMjsWNYNs9g7WFmaW-34">
          <mxGeometry relative="1" as="geometry">
            <mxPoint x="600" y="680" as="targetPoint" />
          </mxGeometry>
        </mxCell>
        <mxCell id="mSuhMjsWNYNs9g7WFmaW-34" value="店家号" style="ellipse;whiteSpace=wrap;html=1;" vertex="1" parent="1">
          <mxGeometry x="635" y="710" width="90" height="60" as="geometry" />
        </mxCell>
        <mxCell id="mSuhMjsWNYNs9g7WFmaW-67" style="edgeStyle=none;shape=connector;rounded=0;orthogonalLoop=1;jettySize=auto;html=1;exitX=0.5;exitY=1;exitDx=0;exitDy=0;entryX=0.5;entryY=0;entryDx=0;entryDy=0;labelBackgroundColor=default;fontFamily=Helvetica;fontSize=11;fontColor=default;endArrow=none;endFill=0;strokeColor=default;" edge="1" parent="1" source="mSuhMjsWNYNs9g7WFmaW-35" target="mSuhMjsWNYNs9g7WFmaW-7">
          <mxGeometry relative="1" as="geometry" />
        </mxCell>
        <mxCell id="mSuhMjsWNYNs9g7WFmaW-35" value="订单号" style="ellipse;whiteSpace=wrap;html=1;" vertex="1" parent="1">
          <mxGeometry x="554" y="470" width="90" height="60" as="geometry" />
        </mxCell>
        <mxCell id="mSuhMjsWNYNs9g7WFmaW-79" style="edgeStyle=none;shape=connector;rounded=0;orthogonalLoop=1;jettySize=auto;html=1;exitX=0.5;exitY=0;exitDx=0;exitDy=0;labelBackgroundColor=default;fontFamily=Helvetica;fontSize=11;fontColor=default;endArrow=none;endFill=0;strokeColor=default;" edge="1" parent="1" source="mSuhMjsWNYNs9g7WFmaW-37">
          <mxGeometry relative="1" as="geometry">
            <mxPoint x="360" y="466" as="targetPoint" />
          </mxGeometry>
        </mxCell>
        <mxCell id="mSuhMjsWNYNs9g7WFmaW-37" value="会员等级" style="ellipse;whiteSpace=wrap;html=1;" vertex="1" parent="1">
          <mxGeometry x="290" y="506" width="70" height="40" as="geometry" />
        </mxCell>
        <mxCell id="mSuhMjsWNYNs9g7WFmaW-69" style="edgeStyle=none;shape=connector;rounded=0;orthogonalLoop=1;jettySize=auto;html=1;exitX=0.5;exitY=0;exitDx=0;exitDy=0;entryX=0.5;entryY=1;entryDx=0;entryDy=0;labelBackgroundColor=default;fontFamily=Helvetica;fontSize=11;fontColor=default;endArrow=none;endFill=0;strokeColor=default;" edge="1" parent="1" source="mSuhMjsWNYNs9g7WFmaW-38" target="mSuhMjsWNYNs9g7WFmaW-8">
          <mxGeometry relative="1" as="geometry" />
        </mxCell>
        <mxCell id="mSuhMjsWNYNs9g7WFmaW-38" value="ISBN" style="ellipse;whiteSpace=wrap;html=1;" vertex="1" parent="1">
          <mxGeometry x="875" y="730" width="70" height="40" as="geometry" />
        </mxCell>
        <mxCell id="mSuhMjsWNYNs9g7WFmaW-70" style="edgeStyle=none;shape=connector;rounded=0;orthogonalLoop=1;jettySize=auto;html=1;exitX=0.5;exitY=0;exitDx=0;exitDy=0;labelBackgroundColor=default;fontFamily=Helvetica;fontSize=11;fontColor=default;endArrow=none;endFill=0;strokeColor=default;" edge="1" parent="1" source="mSuhMjsWNYNs9g7WFmaW-39">
          <mxGeometry relative="1" as="geometry">
            <mxPoint x="950" y="680" as="targetPoint" />
          </mxGeometry>
        </mxCell>
        <mxCell id="mSuhMjsWNYNs9g7WFmaW-39" value="类型" style="ellipse;whiteSpace=wrap;html=1;" vertex="1" parent="1">
          <mxGeometry x="960" y="730" width="70" height="40" as="geometry" />
        </mxCell>
        <mxCell id="mSuhMjsWNYNs9g7WFmaW-71" style="edgeStyle=none;shape=connector;rounded=0;orthogonalLoop=1;jettySize=auto;html=1;exitX=0;exitY=0.5;exitDx=0;exitDy=0;entryX=0.5;entryY=1;entryDx=0;entryDy=0;labelBackgroundColor=default;fontFamily=Helvetica;fontSize=11;fontColor=default;endArrow=none;endFill=0;strokeColor=default;" edge="1" parent="1" source="mSuhMjsWNYNs9g7WFmaW-40" target="mSuhMjsWNYNs9g7WFmaW-8">
          <mxGeometry relative="1" as="geometry" />
        </mxCell>
        <mxCell id="mSuhMjsWNYNs9g7WFmaW-40" value="单价" style="ellipse;whiteSpace=wrap;html=1;" vertex="1" parent="1">
          <mxGeometry x="1030" y="680" width="70" height="40" as="geometry" />
        </mxCell>
        <mxCell id="mSuhMjsWNYNs9g7WFmaW-73" style="edgeStyle=none;shape=connector;rounded=0;orthogonalLoop=1;jettySize=auto;html=1;exitX=0.5;exitY=1;exitDx=0;exitDy=0;entryX=0.5;entryY=0;entryDx=0;entryDy=0;labelBackgroundColor=default;fontFamily=Helvetica;fontSize=11;fontColor=default;endArrow=none;endFill=0;strokeColor=default;" edge="1" parent="1" source="mSuhMjsWNYNs9g7WFmaW-41" target="mSuhMjsWNYNs9g7WFmaW-8">
          <mxGeometry relative="1" as="geometry" />
        </mxCell>
        <mxCell id="mSuhMjsWNYNs9g7WFmaW-41" value="数量" style="ellipse;whiteSpace=wrap;html=1;" vertex="1" parent="1">
          <mxGeometry x="805" y="550" width="70" height="40" as="geometry" />
        </mxCell>
        <mxCell id="mSuhMjsWNYNs9g7WFmaW-74" style="edgeStyle=none;shape=connector;rounded=0;orthogonalLoop=1;jettySize=auto;html=1;exitX=0.5;exitY=1;exitDx=0;exitDy=0;labelBackgroundColor=default;fontFamily=Helvetica;fontSize=11;fontColor=default;endArrow=none;endFill=0;strokeColor=default;" edge="1" parent="1" source="mSuhMjsWNYNs9g7WFmaW-42">
          <mxGeometry relative="1" as="geometry">
            <mxPoint x="950" y="630" as="targetPoint" />
          </mxGeometry>
        </mxCell>
        <mxCell id="mSuhMjsWNYNs9g7WFmaW-42" value="总价" style="ellipse;whiteSpace=wrap;html=1;" vertex="1" parent="1">
          <mxGeometry x="915" y="500" width="70" height="40" as="geometry" />
        </mxCell>
        <mxCell id="mSuhMjsWNYNs9g7WFmaW-75" style="edgeStyle=none;shape=connector;rounded=0;orthogonalLoop=1;jettySize=auto;html=1;exitX=0.5;exitY=1;exitDx=0;exitDy=0;labelBackgroundColor=default;fontFamily=Helvetica;fontSize=11;fontColor=default;endArrow=none;endFill=0;strokeColor=default;entryX=0.5;entryY=0;entryDx=0;entryDy=0;" edge="1" parent="1" source="mSuhMjsWNYNs9g7WFmaW-43" target="mSuhMjsWNYNs9g7WFmaW-8">
          <mxGeometry relative="1" as="geometry">
            <mxPoint x="950" y="620" as="targetPoint" />
          </mxGeometry>
        </mxCell>
        <mxCell id="mSuhMjsWNYNs9g7WFmaW-43" value="订单号" style="ellipse;whiteSpace=wrap;html=1;" vertex="1" parent="1">
          <mxGeometry x="1030" y="550" width="70" height="40" as="geometry" />
        </mxCell>
        <mxCell id="mSuhMjsWNYNs9g7WFmaW-78" style="edgeStyle=none;shape=connector;rounded=0;orthogonalLoop=1;jettySize=auto;html=1;exitX=0.5;exitY=1;exitDx=0;exitDy=0;entryX=0;entryY=0.5;entryDx=0;entryDy=0;labelBackgroundColor=default;fontFamily=Helvetica;fontSize=11;fontColor=default;endArrow=none;endFill=0;strokeColor=default;" edge="1" parent="1" source="mSuhMjsWNYNs9g7WFmaW-44" target="mSuhMjsWNYNs9g7WFmaW-6">
          <mxGeometry relative="1" as="geometry" />
        </mxCell>
        <mxCell id="mSuhMjsWNYNs9g7WFmaW-44" value="折扣" style="ellipse;whiteSpace=wrap;html=1;" vertex="1" parent="1">
          <mxGeometry x="290" y="370" width="70" height="40" as="geometry" />
        </mxCell>
        <mxCell id="mSuhMjsWNYNs9g7WFmaW-72" style="edgeStyle=none;shape=connector;rounded=0;orthogonalLoop=1;jettySize=auto;html=1;exitX=1;exitY=0.5;exitDx=0;exitDy=0;labelBackgroundColor=default;fontFamily=Helvetica;fontSize=11;fontColor=default;endArrow=none;endFill=0;strokeColor=default;" edge="1" parent="1" source="mSuhMjsWNYNs9g7WFmaW-45">
          <mxGeometry relative="1" as="geometry">
            <mxPoint x="950" y="680" as="targetPoint" />
          </mxGeometry>
        </mxCell>
        <mxCell id="mSuhMjsWNYNs9g7WFmaW-45" value="折扣" style="ellipse;whiteSpace=wrap;html=1;" vertex="1" parent="1">
          <mxGeometry x="805" y="690" width="70" height="40" as="geometry" />
        </mxCell>
        <mxCell id="mSuhMjsWNYNs9g7WFmaW-76" style="edgeStyle=none;shape=connector;rounded=0;orthogonalLoop=1;jettySize=auto;html=1;exitX=0.5;exitY=1;exitDx=0;exitDy=0;entryX=0.5;entryY=0;entryDx=0;entryDy=0;labelBackgroundColor=default;fontFamily=Helvetica;fontSize=11;fontColor=default;endArrow=none;endFill=0;strokeColor=default;" edge="1" parent="1" source="mSuhMjsWNYNs9g7WFmaW-46" target="mSuhMjsWNYNs9g7WFmaW-5">
          <mxGeometry relative="1" as="geometry" />
        </mxCell>
        <mxCell id="mSuhMjsWNYNs9g7WFmaW-46" value="会员等级" style="ellipse;whiteSpace=wrap;html=1;" vertex="1" parent="1">
          <mxGeometry x="700" y="374" width="70" height="40" as="geometry" />
        </mxCell>
        <mxCell id="mSuhMjsWNYNs9g7WFmaW-77" style="edgeStyle=none;shape=connector;rounded=0;orthogonalLoop=1;jettySize=auto;html=1;exitX=0.5;exitY=1;exitDx=0;exitDy=0;labelBackgroundColor=default;fontFamily=Helvetica;fontSize=11;fontColor=default;endArrow=none;endFill=0;strokeColor=default;" edge="1" parent="1" source="mSuhMjsWNYNs9g7WFmaW-47">
          <mxGeometry relative="1" as="geometry">
            <mxPoint x="790" y="440" as="targetPoint" />
          </mxGeometry>
        </mxCell>
        <mxCell id="mSuhMjsWNYNs9g7WFmaW-47" value="会员积分" style="ellipse;whiteSpace=wrap;html=1;" vertex="1" parent="1">
          <mxGeometry x="805" y="374" width="70" height="40" as="geometry" />
        </mxCell>
        <mxCell id="mSuhMjsWNYNs9g7WFmaW-51" value="生成" style="rhombus;whiteSpace=wrap;html=1;fontFamily=Helvetica;fontSize=11;fontColor=default;" vertex="1" parent="1">
          <mxGeometry x="745" y="220" width="80" height="50" as="geometry" />
        </mxCell>
        <mxCell id="mSuhMjsWNYNs9g7WFmaW-53" style="edgeStyle=none;shape=connector;rounded=0;orthogonalLoop=1;jettySize=auto;html=1;exitX=1;exitY=0.5;exitDx=0;exitDy=0;entryX=0.5;entryY=0;entryDx=0;entryDy=0;labelBackgroundColor=default;fontFamily=Helvetica;fontSize=11;fontColor=default;endArrow=none;endFill=0;strokeColor=default;" edge="1" parent="1" source="mSuhMjsWNYNs9g7WFmaW-51" target="mSuhMjsWNYNs9g7WFmaW-51">
          <mxGeometry relative="1" as="geometry" />
        </mxCell>
        <mxCell id="mSuhMjsWNYNs9g7WFmaW-89" style="edgeStyle=none;shape=connector;rounded=0;orthogonalLoop=1;jettySize=auto;html=1;exitX=0.5;exitY=1;exitDx=0;exitDy=0;entryX=0.5;entryY=0;entryDx=0;entryDy=0;labelBackgroundColor=default;fontFamily=Helvetica;fontSize=11;fontColor=default;endArrow=none;endFill=0;strokeColor=default;" edge="1" parent="1" source="mSuhMjsWNYNs9g7WFmaW-87" target="mSuhMjsWNYNs9g7WFmaW-2">
          <mxGeometry relative="1" as="geometry" />
        </mxCell>
        <mxCell id="mSuhMjsWNYNs9g7WFmaW-87" value="属于" style="rhombus;whiteSpace=wrap;html=1;fontFamily=Helvetica;fontSize=11;fontColor=default;" vertex="1" parent="1">
          <mxGeometry x="169" y="389" width="80" height="50" as="geometry" />
        </mxCell>
        <mxCell id="mSuhMjsWNYNs9g7WFmaW-91" style="edgeStyle=none;shape=connector;rounded=0;orthogonalLoop=1;jettySize=auto;html=1;exitX=0;exitY=0.5;exitDx=0;exitDy=0;entryX=1;entryY=0.5;entryDx=0;entryDy=0;labelBackgroundColor=default;fontFamily=Helvetica;fontSize=11;fontColor=default;endArrow=none;endFill=0;strokeColor=default;" edge="1" parent="1" source="mSuhMjsWNYNs9g7WFmaW-90" target="mSuhMjsWNYNs9g7WFmaW-2">
          <mxGeometry relative="1" as="geometry" />
        </mxCell>
        <mxCell id="mSuhMjsWNYNs9g7WFmaW-92" style="edgeStyle=none;shape=connector;rounded=0;orthogonalLoop=1;jettySize=auto;html=1;exitX=1;exitY=0.5;exitDx=0;exitDy=0;entryX=0;entryY=0.5;entryDx=0;entryDy=0;labelBackgroundColor=default;fontFamily=Helvetica;fontSize=11;fontColor=default;endArrow=none;endFill=0;strokeColor=default;" edge="1" parent="1" source="mSuhMjsWNYNs9g7WFmaW-90" target="mSuhMjsWNYNs9g7WFmaW-7">
          <mxGeometry relative="1" as="geometry" />
        </mxCell>
        <mxCell id="mSuhMjsWNYNs9g7WFmaW-90" value="生成" style="rhombus;whiteSpace=wrap;html=1;fontFamily=Helvetica;fontSize=11;fontColor=default;" vertex="1" parent="1">
          <mxGeometry x="370" y="630" width="80" height="50" as="geometry" />
        </mxCell>
        <mxCell id="mSuhMjsWNYNs9g7WFmaW-94" style="edgeStyle=none;shape=connector;rounded=0;orthogonalLoop=1;jettySize=auto;html=1;exitX=0;exitY=0.5;exitDx=0;exitDy=0;entryX=1;entryY=0.5;entryDx=0;entryDy=0;labelBackgroundColor=default;fontFamily=Helvetica;fontSize=11;fontColor=default;endArrow=none;endFill=0;strokeColor=default;" edge="1" parent="1" source="mSuhMjsWNYNs9g7WFmaW-93" target="mSuhMjsWNYNs9g7WFmaW-7">
          <mxGeometry relative="1" as="geometry" />
        </mxCell>
        <mxCell id="mSuhMjsWNYNs9g7WFmaW-95" style="edgeStyle=none;shape=connector;rounded=0;orthogonalLoop=1;jettySize=auto;html=1;exitX=1;exitY=0.5;exitDx=0;exitDy=0;entryX=0;entryY=0.5;entryDx=0;entryDy=0;labelBackgroundColor=default;fontFamily=Helvetica;fontSize=11;fontColor=default;endArrow=none;endFill=0;strokeColor=default;" edge="1" parent="1" source="mSuhMjsWNYNs9g7WFmaW-93" target="mSuhMjsWNYNs9g7WFmaW-8">
          <mxGeometry relative="1" as="geometry" />
        </mxCell>
        <mxCell id="mSuhMjsWNYNs9g7WFmaW-93" value="包含" style="rhombus;whiteSpace=wrap;html=1;fontFamily=Helvetica;fontSize=11;fontColor=default;" vertex="1" parent="1">
          <mxGeometry x="740" y="630" width="80" height="50" as="geometry" />
        </mxCell>
        <mxCell id="mSuhMjsWNYNs9g7WFmaW-98" value="遵守" style="rhombus;whiteSpace=wrap;html=1;fontFamily=Helvetica;fontSize=11;fontColor=default;" vertex="1" parent="1">
          <mxGeometry x="910" y="386" width="80" height="50" as="geometry" />
        </mxCell>
        <mxCell id="mSuhMjsWNYNs9g7WFmaW-102" style="edgeStyle=none;shape=connector;rounded=0;orthogonalLoop=1;jettySize=auto;html=1;exitX=0;exitY=0.5;exitDx=0;exitDy=0;entryX=1;entryY=0.5;entryDx=0;entryDy=0;labelBackgroundColor=default;fontFamily=Helvetica;fontSize=11;fontColor=default;endArrow=none;endFill=0;strokeColor=default;" edge="1" parent="1" source="mSuhMjsWNYNs9g7WFmaW-101" target="mSuhMjsWNYNs9g7WFmaW-1">
          <mxGeometry relative="1" as="geometry" />
        </mxCell>
        <mxCell id="mSuhMjsWNYNs9g7WFmaW-103" style="edgeStyle=none;shape=connector;rounded=0;orthogonalLoop=1;jettySize=auto;html=1;exitX=1;exitY=0.5;exitDx=0;exitDy=0;entryX=0;entryY=0.5;entryDx=0;entryDy=0;labelBackgroundColor=default;fontFamily=Helvetica;fontSize=11;fontColor=default;endArrow=none;endFill=0;strokeColor=default;" edge="1" parent="1" source="mSuhMjsWNYNs9g7WFmaW-101" target="mSuhMjsWNYNs9g7WFmaW-3">
          <mxGeometry relative="1" as="geometry" />
        </mxCell>
        <mxCell id="mSuhMjsWNYNs9g7WFmaW-101" value="包含" style="rhombus;whiteSpace=wrap;html=1;fontFamily=Helvetica;fontSize=11;fontColor=default;" vertex="1" parent="1">
          <mxGeometry x="330" y="230" width="80" height="50" as="geometry" />
        </mxCell>
        <mxCell id="mSuhMjsWNYNs9g7WFmaW-105" value="n" style="text;html=1;strokeColor=none;fillColor=none;align=center;verticalAlign=middle;whiteSpace=wrap;rounded=0;fontFamily=Helvetica;fontSize=25;fontColor=default;spacing=2;" vertex="1" parent="1">
          <mxGeometry x="160" y="230" width="60" height="30" as="geometry" />
        </mxCell>
        <mxCell id="mSuhMjsWNYNs9g7WFmaW-106" value="1" style="text;html=1;strokeColor=none;fillColor=none;align=center;verticalAlign=middle;whiteSpace=wrap;rounded=0;fontFamily=Helvetica;fontSize=25;fontColor=default;spacing=2;" vertex="1" parent="1">
          <mxGeometry x="360" y="500" width="60" height="30" as="geometry" />
        </mxCell>
        <mxCell id="mSuhMjsWNYNs9g7WFmaW-107" value="n" style="text;html=1;strokeColor=none;fillColor=none;align=center;verticalAlign=middle;whiteSpace=wrap;rounded=0;fontFamily=Helvetica;fontSize=25;fontColor=default;spacing=2;" vertex="1" parent="1">
          <mxGeometry x="495" y="620" width="60" height="30" as="geometry" />
        </mxCell>
        <mxCell id="mSuhMjsWNYNs9g7WFmaW-108" value="1" style="text;html=1;strokeColor=none;fillColor=none;align=center;verticalAlign=middle;whiteSpace=wrap;rounded=0;fontFamily=Helvetica;fontSize=25;fontColor=default;spacing=2;" vertex="1" parent="1">
          <mxGeometry x="570" y="320" width="60" height="30" as="geometry" />
        </mxCell>
        <mxCell id="mSuhMjsWNYNs9g7WFmaW-109" value="1" style="text;html=1;strokeColor=none;fillColor=none;align=center;verticalAlign=middle;whiteSpace=wrap;rounded=0;fontFamily=Helvetica;fontSize=25;fontColor=default;spacing=2;" vertex="1" parent="1">
          <mxGeometry x="160" y="590" width="60" height="30" as="geometry" />
        </mxCell>
        <mxCell id="mSuhMjsWNYNs9g7WFmaW-110" value="1" style="text;html=1;strokeColor=none;fillColor=none;align=center;verticalAlign=middle;whiteSpace=wrap;rounded=0;fontFamily=Helvetica;fontSize=25;fontColor=default;spacing=2;" vertex="1" parent="1">
          <mxGeometry x="660" y="240" width="60" height="30" as="geometry" />
        </mxCell>
        <mxCell id="mSuhMjsWNYNs9g7WFmaW-111" value="1" style="text;html=1;strokeColor=none;fillColor=none;align=center;verticalAlign=middle;whiteSpace=wrap;rounded=0;fontFamily=Helvetica;fontSize=25;fontColor=default;spacing=2;" vertex="1" parent="1">
          <mxGeometry x="840" y="160" width="60" height="30" as="geometry" />
        </mxCell>
        <mxCell id="mSuhMjsWNYNs9g7WFmaW-113" value="n" style="text;html=1;strokeColor=none;fillColor=none;align=center;verticalAlign=middle;whiteSpace=wrap;rounded=0;fontFamily=Helvetica;fontSize=25;fontColor=default;spacing=2;" vertex="1" parent="1">
          <mxGeometry x="260" y="620" width="60" height="30" as="geometry" />
        </mxCell>
        <mxCell id="mSuhMjsWNYNs9g7WFmaW-114" value="1" style="text;html=1;strokeColor=none;fillColor=none;align=center;verticalAlign=middle;whiteSpace=wrap;rounded=0;fontFamily=Helvetica;fontSize=25;fontColor=default;spacing=2;" vertex="1" parent="1">
          <mxGeometry x="830" y="420" width="60" height="30" as="geometry" />
        </mxCell>
        <mxCell id="mSuhMjsWNYNs9g7WFmaW-115" value="1" style="text;html=1;strokeColor=none;fillColor=none;align=center;verticalAlign=middle;whiteSpace=wrap;rounded=0;fontFamily=Helvetica;fontSize=25;fontColor=default;spacing=2;" vertex="1" parent="1">
          <mxGeometry x="650" y="620" width="60" height="30" as="geometry" />
        </mxCell>
        <mxCell id="mSuhMjsWNYNs9g7WFmaW-116" value="1" style="text;html=1;strokeColor=none;fillColor=none;align=center;verticalAlign=middle;whiteSpace=wrap;rounded=0;fontFamily=Helvetica;fontSize=25;fontColor=default;spacing=2;" vertex="1" parent="1">
          <mxGeometry x="840" y="620" width="60" height="30" as="geometry" />
        </mxCell>
        <mxCell id="mSuhMjsWNYNs9g7WFmaW-117" style="edgeStyle=none;shape=connector;rounded=0;orthogonalLoop=1;jettySize=auto;html=1;exitX=0.5;exitY=0;exitDx=0;exitDy=0;labelBackgroundColor=default;fontFamily=Helvetica;fontSize=25;fontColor=default;endArrow=none;endFill=0;strokeColor=default;" edge="1" parent="1" source="mSuhMjsWNYNs9g7WFmaW-116" target="mSuhMjsWNYNs9g7WFmaW-116">
          <mxGeometry relative="1" as="geometry" />
        </mxCell>
        <mxCell id="mSuhMjsWNYNs9g7WFmaW-118" value="1" style="text;html=1;strokeColor=none;fillColor=none;align=center;verticalAlign=middle;whiteSpace=wrap;rounded=0;fontFamily=Helvetica;fontSize=25;fontColor=default;spacing=2;" vertex="1" parent="1">
          <mxGeometry x="900" y="220" width="60" height="30" as="geometry" />
        </mxCell>
        <mxCell id="mSuhMjsWNYNs9g7WFmaW-119" value="n" style="text;html=1;strokeColor=none;fillColor=none;align=center;verticalAlign=middle;whiteSpace=wrap;rounded=0;fontFamily=Helvetica;fontSize=25;fontColor=default;spacing=2;" vertex="1" parent="1">
          <mxGeometry x="260" y="170" width="60" height="30" as="geometry" />
        </mxCell>
        <mxCell id="mSuhMjsWNYNs9g7WFmaW-120" value="1" style="text;html=1;strokeColor=none;fillColor=none;align=center;verticalAlign=middle;whiteSpace=wrap;rounded=0;fontFamily=Helvetica;fontSize=25;fontColor=default;spacing=2;" vertex="1" parent="1">
          <mxGeometry x="480" y="240" width="60" height="30" as="geometry" />
        </mxCell>
      </root>
    </mxGraphModel>
  </diagram>
</mxfile>
